M48
INCH,TZ
T1C0.016
T2C0.031
T3C0.039
T4C0.039
T5C0.043
%
G90
G05
T1
X49311Y-33465
T2
X52315Y-33945
X52315Y-34945
X52315Y-35945
X52315Y-36945
X55315Y-33945
X55315Y-34945
X55315Y-35945
X55315Y-36945
T3
X41260Y-33583
X41260Y-34567
X41260Y-35354
X41260Y-36339
X56594Y-33760
X56594Y-36319
X58366Y-33760
X58366Y-36319
T4
X43307Y-33465
X43307Y-34744
X43539Y-36220
X44524Y-32087
X44539Y-37697
X46307Y-33465
X46307Y-34744
X47539Y-36220
X47539Y-37697
X47984Y-33465
X48031Y-34843
X48524Y-32087
X49606Y-32087
X49803Y-36614
X49803Y-37614
X50984Y-33465
X51031Y-34843
X53606Y-32087
T5
X40472Y-34075
X40472Y-35846
T3
X40768Y-32717G85X40177Y-32717
G05
X40768Y-37205G85X40177Y-37205
G05
T0
M30
