G04 #@! TF.FileFunction,Copper,L1,Top,Signal*
%FSLAX46Y46*%
G04 Gerber Fmt 4.6, Leading zero omitted, Abs format (unit mm)*
G04 Created by KiCad (PCBNEW 4.0.2-stable) date Tue 01 Mar 2016 12:52:29 PM EST*
%MOMM*%
G01*
G04 APERTURE LIST*
%ADD10C,0.100000*%
%ADD11C,1.800000*%
%ADD12C,1.500000*%
%ADD13O,3.600000X1.800000*%
%ADD14O,1.600000X1.600000*%
%ADD15C,1.998980*%
%ADD16R,2.000000X1.900000*%
%ADD17C,1.900000*%
%ADD18C,0.600000*%
%ADD19C,0.300000*%
%ADD20C,0.254000*%
G04 APERTURE END LIST*
D10*
D11*
X104800000Y-85300000D03*
X104800000Y-92300000D03*
D12*
X104800000Y-87800000D03*
X104800000Y-89800000D03*
D13*
X102800000Y-83100000D03*
X102800000Y-94500000D03*
D12*
X102800000Y-86550000D03*
X102800000Y-91050000D03*
D14*
X140500000Y-93840000D03*
X140500000Y-91300000D03*
X140500000Y-88760000D03*
X140500000Y-86220000D03*
X132880000Y-86220000D03*
X132880000Y-88760000D03*
X132880000Y-91300000D03*
X132880000Y-93840000D03*
D15*
X120750000Y-95750000D03*
X113130000Y-95750000D03*
X122000000Y-88500000D03*
X129620000Y-88500000D03*
X121880000Y-85000000D03*
X129500000Y-85000000D03*
D16*
X126500000Y-93000000D03*
D17*
X126500000Y-95540000D03*
D15*
X110590000Y-92000000D03*
X120750000Y-92000000D03*
X113090000Y-81500000D03*
X123250000Y-81500000D03*
X117620000Y-88250000D03*
X110000000Y-88250000D03*
X117620000Y-85000000D03*
X110000000Y-85000000D03*
X126000000Y-81500000D03*
X136160000Y-81500000D03*
D11*
X143750000Y-85750000D03*
X143750000Y-92250000D03*
X148250000Y-85750000D03*
X148250000Y-92250000D03*
D18*
X125249994Y-85000000D03*
D19*
X120750000Y-92000000D02*
X122163492Y-92000000D01*
X131748630Y-93870000D02*
X132880000Y-93870000D01*
X122163492Y-92000000D02*
X123013980Y-91149512D01*
X131147667Y-93870000D02*
X131748630Y-93870000D01*
X123013980Y-91149512D02*
X128427179Y-91149512D01*
X128427179Y-91149512D02*
X131147667Y-93870000D01*
X132760000Y-93750000D02*
X132880000Y-93870000D01*
X122563493Y-91599999D02*
X120750000Y-92000000D01*
X104800000Y-89800000D02*
X105200000Y-89400000D01*
X108300000Y-89400000D02*
X109450000Y-88250000D01*
X105200000Y-89400000D02*
X108300000Y-89400000D01*
X109450000Y-88250000D02*
X110000000Y-88250000D01*
X120800509Y-89699491D02*
X121000511Y-89499489D01*
X110000000Y-88250000D02*
X111449491Y-89699491D01*
X111449491Y-89699491D02*
X120800509Y-89699491D01*
X121000511Y-89499489D02*
X122000000Y-88500000D01*
X104800000Y-87800000D02*
X106600000Y-87800000D01*
X106600000Y-87800000D02*
X109400000Y-85000000D01*
X109400000Y-85000000D02*
X110000000Y-85000000D01*
X110000000Y-85000000D02*
X111750000Y-83250000D01*
X111750000Y-83250000D02*
X120130000Y-83250000D01*
X120130000Y-83250000D02*
X120880511Y-84000511D01*
X120880511Y-84000511D02*
X121880000Y-85000000D01*
X110590000Y-92000000D02*
X112039491Y-90550509D01*
X112039491Y-90550509D02*
X121445757Y-90550509D01*
X121445757Y-90550509D02*
X121446765Y-90549501D01*
X121446765Y-90549501D02*
X129799501Y-90549501D01*
X129799501Y-90549501D02*
X131830001Y-92580001D01*
X131830001Y-92580001D02*
X139249999Y-92580001D01*
X139249999Y-92580001D02*
X139700001Y-92129999D01*
X139700001Y-92129999D02*
X140500000Y-91330000D01*
X140500000Y-91330000D02*
X141299999Y-90530001D01*
X141299999Y-90530001D02*
X146530001Y-90530001D01*
X146530001Y-90530001D02*
X147350001Y-91350001D01*
X147350001Y-91350001D02*
X148250000Y-92250000D01*
X148250000Y-85750000D02*
X148250000Y-87022792D01*
X148250000Y-87022792D02*
X148250000Y-92250000D01*
X125549993Y-85299999D02*
X125249994Y-85000000D01*
X126999994Y-86750000D02*
X125549993Y-85299999D01*
X130840000Y-86750000D02*
X126999994Y-86750000D01*
X132880000Y-88790000D02*
X130840000Y-86750000D01*
X132080001Y-90530001D02*
X132880000Y-91330000D01*
X117620000Y-85000000D02*
X119370000Y-86750000D01*
X131499491Y-89949491D02*
X132080001Y-90530001D01*
X125724752Y-86750000D02*
X128924243Y-89949491D01*
X128924243Y-89949491D02*
X131499491Y-89949491D01*
X119370000Y-86750000D02*
X125724752Y-86750000D01*
D20*
G36*
X109673453Y-89884206D02*
X110323694Y-89884774D01*
X110465870Y-89826028D01*
X110894412Y-90254570D01*
X111092749Y-90387093D01*
X111056100Y-90423742D01*
X110916547Y-90365794D01*
X110266306Y-90365226D01*
X109665345Y-90613538D01*
X109205154Y-91072927D01*
X108955794Y-91673453D01*
X108955226Y-92323694D01*
X109203538Y-92924655D01*
X109662927Y-93384846D01*
X110263453Y-93634206D01*
X110913694Y-93634774D01*
X111514655Y-93386462D01*
X111749363Y-93152163D01*
X119777443Y-93152163D01*
X119876042Y-93418965D01*
X120485582Y-93645401D01*
X121135377Y-93621341D01*
X121623958Y-93418965D01*
X121722557Y-93152163D01*
X120750000Y-92179605D01*
X119777443Y-93152163D01*
X111749363Y-93152163D01*
X111974846Y-92927073D01*
X112224206Y-92326547D01*
X112224774Y-91676306D01*
X112166028Y-91534130D01*
X112364649Y-91335509D01*
X119253221Y-91335509D01*
X119104599Y-91735582D01*
X119128659Y-92385377D01*
X119331035Y-92873958D01*
X119597837Y-92972557D01*
X120570395Y-92000000D01*
X120556252Y-91985858D01*
X120735858Y-91806253D01*
X120750000Y-91820395D01*
X120764143Y-91806253D01*
X120943748Y-91985858D01*
X120929605Y-92000000D01*
X121902163Y-92972557D01*
X122168965Y-92873958D01*
X122395401Y-92264418D01*
X122371341Y-91614623D01*
X122255311Y-91334501D01*
X129474343Y-91334501D01*
X131274922Y-93135080D01*
X131529595Y-93305246D01*
X131562320Y-93311756D01*
X131488096Y-93490961D01*
X131610085Y-93713000D01*
X132753000Y-93713000D01*
X132753000Y-93693000D01*
X133007000Y-93693000D01*
X133007000Y-93713000D01*
X134149915Y-93713000D01*
X134271904Y-93490961D01*
X134219733Y-93365001D01*
X139131370Y-93365001D01*
X139036887Y-93840000D01*
X139146120Y-94389151D01*
X139457189Y-94854698D01*
X139922736Y-95165767D01*
X140471887Y-95275000D01*
X140528113Y-95275000D01*
X141077264Y-95165767D01*
X141542811Y-94854698D01*
X141853880Y-94389151D01*
X141963113Y-93840000D01*
X141853880Y-93290849D01*
X141542811Y-92825302D01*
X141160725Y-92570000D01*
X141542811Y-92314698D01*
X141853880Y-91849151D01*
X141960129Y-91315001D01*
X142513918Y-91315001D01*
X142449449Y-91379357D01*
X142215267Y-91943330D01*
X142214735Y-92553991D01*
X142447932Y-93118371D01*
X142879357Y-93550551D01*
X143443330Y-93784733D01*
X144053991Y-93785265D01*
X144618371Y-93552068D01*
X145050551Y-93120643D01*
X145284733Y-92556670D01*
X145285265Y-91946009D01*
X145052068Y-91381629D01*
X144985556Y-91315001D01*
X146204843Y-91315001D01*
X146749861Y-91860019D01*
X146715267Y-91943330D01*
X146714735Y-92553991D01*
X146947932Y-93118371D01*
X147379357Y-93550551D01*
X147943330Y-93784733D01*
X148553991Y-93785265D01*
X149118371Y-93552068D01*
X149290000Y-93380739D01*
X149290000Y-95680069D01*
X149178953Y-96238340D01*
X148902333Y-96652331D01*
X148488338Y-96928954D01*
X147930069Y-97040000D01*
X127020274Y-97040000D01*
X127396657Y-96884481D01*
X127842914Y-96439003D01*
X128084724Y-95856659D01*
X128085275Y-95226107D01*
X127844481Y-94643343D01*
X127746971Y-94545663D01*
X127951441Y-94414090D01*
X128096431Y-94201890D01*
X128099033Y-94189039D01*
X131488096Y-94189039D01*
X131648959Y-94577423D01*
X132024866Y-94992389D01*
X132530959Y-95231914D01*
X132753000Y-95110629D01*
X132753000Y-93967000D01*
X133007000Y-93967000D01*
X133007000Y-95110629D01*
X133229041Y-95231914D01*
X133735134Y-94992389D01*
X134111041Y-94577423D01*
X134271904Y-94189039D01*
X134149915Y-93967000D01*
X133007000Y-93967000D01*
X132753000Y-93967000D01*
X131610085Y-93967000D01*
X131488096Y-94189039D01*
X128099033Y-94189039D01*
X128147440Y-93950000D01*
X128147440Y-92050000D01*
X128103162Y-91814683D01*
X127964090Y-91598559D01*
X127751890Y-91453569D01*
X127500000Y-91402560D01*
X125500000Y-91402560D01*
X125264683Y-91446838D01*
X125048559Y-91585910D01*
X124903569Y-91798110D01*
X124852560Y-92050000D01*
X124852560Y-93950000D01*
X124896838Y-94185317D01*
X125035910Y-94401441D01*
X125248110Y-94546431D01*
X125251192Y-94547055D01*
X125157086Y-94640997D01*
X124915276Y-95223341D01*
X124914725Y-95853893D01*
X125155519Y-96436657D01*
X125600997Y-96882914D01*
X125979303Y-97040000D01*
X121671618Y-97040000D01*
X121722557Y-96902163D01*
X120750000Y-95929605D01*
X119777443Y-96902163D01*
X119828382Y-97040000D01*
X114151285Y-97040000D01*
X114514846Y-96677073D01*
X114764206Y-96076547D01*
X114764722Y-95485582D01*
X119104599Y-95485582D01*
X119128659Y-96135377D01*
X119331035Y-96623958D01*
X119597837Y-96722557D01*
X120570395Y-95750000D01*
X120929605Y-95750000D01*
X121902163Y-96722557D01*
X122168965Y-96623958D01*
X122395401Y-96014418D01*
X122371341Y-95364623D01*
X122168965Y-94876042D01*
X121902163Y-94777443D01*
X120929605Y-95750000D01*
X120570395Y-95750000D01*
X119597837Y-94777443D01*
X119331035Y-94876042D01*
X119104599Y-95485582D01*
X114764722Y-95485582D01*
X114764774Y-95426306D01*
X114516462Y-94825345D01*
X114289351Y-94597837D01*
X119777443Y-94597837D01*
X120750000Y-95570395D01*
X121722557Y-94597837D01*
X121623958Y-94331035D01*
X121014418Y-94104599D01*
X120364623Y-94128659D01*
X119876042Y-94331035D01*
X119777443Y-94597837D01*
X114289351Y-94597837D01*
X114057073Y-94365154D01*
X113456547Y-94115794D01*
X112806306Y-94115226D01*
X112205345Y-94363538D01*
X111745154Y-94822927D01*
X111495794Y-95423453D01*
X111495226Y-96073694D01*
X111743538Y-96674655D01*
X112108246Y-97040000D01*
X101069930Y-97040000D01*
X100894345Y-97005074D01*
X100804774Y-96945225D01*
X100744926Y-96855655D01*
X100710000Y-96680070D01*
X100710000Y-95500272D01*
X100766887Y-95585409D01*
X101264877Y-95918155D01*
X101852296Y-96035000D01*
X103747704Y-96035000D01*
X104335123Y-95918155D01*
X104833113Y-95585409D01*
X105165859Y-95087419D01*
X105282704Y-94500000D01*
X105165859Y-93912581D01*
X105106330Y-93823490D01*
X105169460Y-93820839D01*
X105614148Y-93636643D01*
X105700554Y-93380159D01*
X104800000Y-92479605D01*
X104785858Y-92493748D01*
X104606253Y-92314143D01*
X104620395Y-92300000D01*
X104979605Y-92300000D01*
X105880159Y-93200554D01*
X106136643Y-93114148D01*
X106346458Y-92540664D01*
X106320839Y-91930540D01*
X106136643Y-91485852D01*
X105880159Y-91399446D01*
X104979605Y-92300000D01*
X104620395Y-92300000D01*
X104606253Y-92285858D01*
X104785858Y-92106253D01*
X104800000Y-92120395D01*
X105700554Y-91219841D01*
X105614148Y-90963357D01*
X105600142Y-90958233D01*
X105973461Y-90585564D01*
X106139790Y-90185000D01*
X108300000Y-90185000D01*
X108600407Y-90125245D01*
X108855079Y-89955079D01*
X109145272Y-89664886D01*
X109673453Y-89884206D01*
X109673453Y-89884206D01*
G37*
X109673453Y-89884206D02*
X110323694Y-89884774D01*
X110465870Y-89826028D01*
X110894412Y-90254570D01*
X111092749Y-90387093D01*
X111056100Y-90423742D01*
X110916547Y-90365794D01*
X110266306Y-90365226D01*
X109665345Y-90613538D01*
X109205154Y-91072927D01*
X108955794Y-91673453D01*
X108955226Y-92323694D01*
X109203538Y-92924655D01*
X109662927Y-93384846D01*
X110263453Y-93634206D01*
X110913694Y-93634774D01*
X111514655Y-93386462D01*
X111749363Y-93152163D01*
X119777443Y-93152163D01*
X119876042Y-93418965D01*
X120485582Y-93645401D01*
X121135377Y-93621341D01*
X121623958Y-93418965D01*
X121722557Y-93152163D01*
X120750000Y-92179605D01*
X119777443Y-93152163D01*
X111749363Y-93152163D01*
X111974846Y-92927073D01*
X112224206Y-92326547D01*
X112224774Y-91676306D01*
X112166028Y-91534130D01*
X112364649Y-91335509D01*
X119253221Y-91335509D01*
X119104599Y-91735582D01*
X119128659Y-92385377D01*
X119331035Y-92873958D01*
X119597837Y-92972557D01*
X120570395Y-92000000D01*
X120556252Y-91985858D01*
X120735858Y-91806253D01*
X120750000Y-91820395D01*
X120764143Y-91806253D01*
X120943748Y-91985858D01*
X120929605Y-92000000D01*
X121902163Y-92972557D01*
X122168965Y-92873958D01*
X122395401Y-92264418D01*
X122371341Y-91614623D01*
X122255311Y-91334501D01*
X129474343Y-91334501D01*
X131274922Y-93135080D01*
X131529595Y-93305246D01*
X131562320Y-93311756D01*
X131488096Y-93490961D01*
X131610085Y-93713000D01*
X132753000Y-93713000D01*
X132753000Y-93693000D01*
X133007000Y-93693000D01*
X133007000Y-93713000D01*
X134149915Y-93713000D01*
X134271904Y-93490961D01*
X134219733Y-93365001D01*
X139131370Y-93365001D01*
X139036887Y-93840000D01*
X139146120Y-94389151D01*
X139457189Y-94854698D01*
X139922736Y-95165767D01*
X140471887Y-95275000D01*
X140528113Y-95275000D01*
X141077264Y-95165767D01*
X141542811Y-94854698D01*
X141853880Y-94389151D01*
X141963113Y-93840000D01*
X141853880Y-93290849D01*
X141542811Y-92825302D01*
X141160725Y-92570000D01*
X141542811Y-92314698D01*
X141853880Y-91849151D01*
X141960129Y-91315001D01*
X142513918Y-91315001D01*
X142449449Y-91379357D01*
X142215267Y-91943330D01*
X142214735Y-92553991D01*
X142447932Y-93118371D01*
X142879357Y-93550551D01*
X143443330Y-93784733D01*
X144053991Y-93785265D01*
X144618371Y-93552068D01*
X145050551Y-93120643D01*
X145284733Y-92556670D01*
X145285265Y-91946009D01*
X145052068Y-91381629D01*
X144985556Y-91315001D01*
X146204843Y-91315001D01*
X146749861Y-91860019D01*
X146715267Y-91943330D01*
X146714735Y-92553991D01*
X146947932Y-93118371D01*
X147379357Y-93550551D01*
X147943330Y-93784733D01*
X148553991Y-93785265D01*
X149118371Y-93552068D01*
X149290000Y-93380739D01*
X149290000Y-95680069D01*
X149178953Y-96238340D01*
X148902333Y-96652331D01*
X148488338Y-96928954D01*
X147930069Y-97040000D01*
X127020274Y-97040000D01*
X127396657Y-96884481D01*
X127842914Y-96439003D01*
X128084724Y-95856659D01*
X128085275Y-95226107D01*
X127844481Y-94643343D01*
X127746971Y-94545663D01*
X127951441Y-94414090D01*
X128096431Y-94201890D01*
X128099033Y-94189039D01*
X131488096Y-94189039D01*
X131648959Y-94577423D01*
X132024866Y-94992389D01*
X132530959Y-95231914D01*
X132753000Y-95110629D01*
X132753000Y-93967000D01*
X133007000Y-93967000D01*
X133007000Y-95110629D01*
X133229041Y-95231914D01*
X133735134Y-94992389D01*
X134111041Y-94577423D01*
X134271904Y-94189039D01*
X134149915Y-93967000D01*
X133007000Y-93967000D01*
X132753000Y-93967000D01*
X131610085Y-93967000D01*
X131488096Y-94189039D01*
X128099033Y-94189039D01*
X128147440Y-93950000D01*
X128147440Y-92050000D01*
X128103162Y-91814683D01*
X127964090Y-91598559D01*
X127751890Y-91453569D01*
X127500000Y-91402560D01*
X125500000Y-91402560D01*
X125264683Y-91446838D01*
X125048559Y-91585910D01*
X124903569Y-91798110D01*
X124852560Y-92050000D01*
X124852560Y-93950000D01*
X124896838Y-94185317D01*
X125035910Y-94401441D01*
X125248110Y-94546431D01*
X125251192Y-94547055D01*
X125157086Y-94640997D01*
X124915276Y-95223341D01*
X124914725Y-95853893D01*
X125155519Y-96436657D01*
X125600997Y-96882914D01*
X125979303Y-97040000D01*
X121671618Y-97040000D01*
X121722557Y-96902163D01*
X120750000Y-95929605D01*
X119777443Y-96902163D01*
X119828382Y-97040000D01*
X114151285Y-97040000D01*
X114514846Y-96677073D01*
X114764206Y-96076547D01*
X114764722Y-95485582D01*
X119104599Y-95485582D01*
X119128659Y-96135377D01*
X119331035Y-96623958D01*
X119597837Y-96722557D01*
X120570395Y-95750000D01*
X120929605Y-95750000D01*
X121902163Y-96722557D01*
X122168965Y-96623958D01*
X122395401Y-96014418D01*
X122371341Y-95364623D01*
X122168965Y-94876042D01*
X121902163Y-94777443D01*
X120929605Y-95750000D01*
X120570395Y-95750000D01*
X119597837Y-94777443D01*
X119331035Y-94876042D01*
X119104599Y-95485582D01*
X114764722Y-95485582D01*
X114764774Y-95426306D01*
X114516462Y-94825345D01*
X114289351Y-94597837D01*
X119777443Y-94597837D01*
X120750000Y-95570395D01*
X121722557Y-94597837D01*
X121623958Y-94331035D01*
X121014418Y-94104599D01*
X120364623Y-94128659D01*
X119876042Y-94331035D01*
X119777443Y-94597837D01*
X114289351Y-94597837D01*
X114057073Y-94365154D01*
X113456547Y-94115794D01*
X112806306Y-94115226D01*
X112205345Y-94363538D01*
X111745154Y-94822927D01*
X111495794Y-95423453D01*
X111495226Y-96073694D01*
X111743538Y-96674655D01*
X112108246Y-97040000D01*
X101069930Y-97040000D01*
X100894345Y-97005074D01*
X100804774Y-96945225D01*
X100744926Y-96855655D01*
X100710000Y-96680070D01*
X100710000Y-95500272D01*
X100766887Y-95585409D01*
X101264877Y-95918155D01*
X101852296Y-96035000D01*
X103747704Y-96035000D01*
X104335123Y-95918155D01*
X104833113Y-95585409D01*
X105165859Y-95087419D01*
X105282704Y-94500000D01*
X105165859Y-93912581D01*
X105106330Y-93823490D01*
X105169460Y-93820839D01*
X105614148Y-93636643D01*
X105700554Y-93380159D01*
X104800000Y-92479605D01*
X104785858Y-92493748D01*
X104606253Y-92314143D01*
X104620395Y-92300000D01*
X104979605Y-92300000D01*
X105880159Y-93200554D01*
X106136643Y-93114148D01*
X106346458Y-92540664D01*
X106320839Y-91930540D01*
X106136643Y-91485852D01*
X105880159Y-91399446D01*
X104979605Y-92300000D01*
X104620395Y-92300000D01*
X104606253Y-92285858D01*
X104785858Y-92106253D01*
X104800000Y-92120395D01*
X105700554Y-91219841D01*
X105614148Y-90963357D01*
X105600142Y-90958233D01*
X105973461Y-90585564D01*
X106139790Y-90185000D01*
X108300000Y-90185000D01*
X108600407Y-90125245D01*
X108855079Y-89955079D01*
X109145272Y-89664886D01*
X109673453Y-89884206D01*
G36*
X112117443Y-80347837D02*
X113090000Y-81320395D01*
X114062557Y-80347837D01*
X114011618Y-80210000D01*
X122228715Y-80210000D01*
X121865154Y-80572927D01*
X121615794Y-81173453D01*
X121615226Y-81823694D01*
X121863538Y-82424655D01*
X122322927Y-82884846D01*
X122923453Y-83134206D01*
X123573694Y-83134774D01*
X124174655Y-82886462D01*
X124625382Y-82436520D01*
X125072927Y-82884846D01*
X125673453Y-83134206D01*
X126323694Y-83134774D01*
X126924655Y-82886462D01*
X127384846Y-82427073D01*
X127634206Y-81826547D01*
X127634774Y-81176306D01*
X127386462Y-80575345D01*
X127021754Y-80210000D01*
X135138715Y-80210000D01*
X134775154Y-80572927D01*
X134525794Y-81173453D01*
X134525226Y-81823694D01*
X134773538Y-82424655D01*
X135232927Y-82884846D01*
X135833453Y-83134206D01*
X136483694Y-83134774D01*
X137084655Y-82886462D01*
X137544846Y-82427073D01*
X137794206Y-81826547D01*
X137794774Y-81176306D01*
X137546462Y-80575345D01*
X137181754Y-80210000D01*
X147930069Y-80210000D01*
X148488338Y-80321046D01*
X148902333Y-80597669D01*
X149178953Y-81011660D01*
X149290000Y-81569931D01*
X149290000Y-84619102D01*
X149120643Y-84449449D01*
X148556670Y-84215267D01*
X147946009Y-84214735D01*
X147381629Y-84447932D01*
X146949449Y-84879357D01*
X146715267Y-85443330D01*
X146714735Y-86053991D01*
X146947932Y-86618371D01*
X147379357Y-87050551D01*
X147465000Y-87086113D01*
X147465000Y-90354842D01*
X147085080Y-89974922D01*
X146830408Y-89804756D01*
X146530001Y-89745001D01*
X141562654Y-89745001D01*
X141853880Y-89309151D01*
X141963113Y-88760000D01*
X141853880Y-88210849D01*
X141542811Y-87745302D01*
X141160725Y-87490000D01*
X141542811Y-87234698D01*
X141853880Y-86769151D01*
X141963113Y-86220000D01*
X141930092Y-86053991D01*
X142214735Y-86053991D01*
X142447932Y-86618371D01*
X142879357Y-87050551D01*
X143443330Y-87284733D01*
X144053991Y-87285265D01*
X144618371Y-87052068D01*
X145050551Y-86620643D01*
X145284733Y-86056670D01*
X145285265Y-85446009D01*
X145052068Y-84881629D01*
X144620643Y-84449449D01*
X144056670Y-84215267D01*
X143446009Y-84214735D01*
X142881629Y-84447932D01*
X142449449Y-84879357D01*
X142215267Y-85443330D01*
X142214735Y-86053991D01*
X141930092Y-86053991D01*
X141853880Y-85670849D01*
X141542811Y-85205302D01*
X141077264Y-84894233D01*
X140528113Y-84785000D01*
X140471887Y-84785000D01*
X139922736Y-84894233D01*
X139457189Y-85205302D01*
X139146120Y-85670849D01*
X139036887Y-86220000D01*
X139146120Y-86769151D01*
X139457189Y-87234698D01*
X139839275Y-87490000D01*
X139457189Y-87745302D01*
X139146120Y-88210849D01*
X139036887Y-88760000D01*
X139146120Y-89309151D01*
X139457189Y-89774698D01*
X139839275Y-90030000D01*
X139457189Y-90285302D01*
X139146120Y-90750849D01*
X139036887Y-91300000D01*
X139100423Y-91619419D01*
X138924841Y-91795001D01*
X134244651Y-91795001D01*
X134343113Y-91300000D01*
X134233880Y-90750849D01*
X133922811Y-90285302D01*
X133540725Y-90030000D01*
X133922811Y-89774698D01*
X134233880Y-89309151D01*
X134343113Y-88760000D01*
X134233880Y-88210849D01*
X133922811Y-87745302D01*
X133540725Y-87490000D01*
X133922811Y-87234698D01*
X134233880Y-86769151D01*
X134343113Y-86220000D01*
X134233880Y-85670849D01*
X133922811Y-85205302D01*
X133457264Y-84894233D01*
X132908113Y-84785000D01*
X132851887Y-84785000D01*
X132302736Y-84894233D01*
X131837189Y-85205302D01*
X131526120Y-85670849D01*
X131417430Y-86217272D01*
X131395079Y-86194921D01*
X131140407Y-86024755D01*
X130845714Y-85966137D01*
X130884846Y-85927073D01*
X131134206Y-85326547D01*
X131134774Y-84676306D01*
X130886462Y-84075345D01*
X130427073Y-83615154D01*
X129826547Y-83365794D01*
X129176306Y-83365226D01*
X128575345Y-83613538D01*
X128115154Y-84072927D01*
X127865794Y-84673453D01*
X127865226Y-85323694D01*
X128113538Y-85924655D01*
X128153813Y-85965000D01*
X127325152Y-85965000D01*
X126185147Y-84824995D01*
X126185156Y-84814833D01*
X126043111Y-84471057D01*
X125780321Y-84207808D01*
X125436793Y-84065162D01*
X125064827Y-84064838D01*
X124721051Y-84206883D01*
X124457802Y-84469673D01*
X124315156Y-84813201D01*
X124314832Y-85185167D01*
X124456877Y-85528943D01*
X124719667Y-85792192D01*
X125063195Y-85934838D01*
X125074684Y-85934848D01*
X125104836Y-85965000D01*
X123226853Y-85965000D01*
X123264846Y-85927073D01*
X123514206Y-85326547D01*
X123514774Y-84676306D01*
X123266462Y-84075345D01*
X122807073Y-83615154D01*
X122206547Y-83365794D01*
X121556306Y-83365226D01*
X121414130Y-83423972D01*
X120685079Y-82694921D01*
X120430407Y-82524755D01*
X120130000Y-82465000D01*
X114262612Y-82465000D01*
X114508965Y-82373958D01*
X114735401Y-81764418D01*
X114711341Y-81114623D01*
X114508965Y-80626042D01*
X114242163Y-80527443D01*
X113269605Y-81500000D01*
X113283748Y-81514142D01*
X113104142Y-81693748D01*
X113090000Y-81679605D01*
X113075858Y-81693748D01*
X112896252Y-81514142D01*
X112910395Y-81500000D01*
X111937837Y-80527443D01*
X111671035Y-80626042D01*
X111444599Y-81235582D01*
X111468659Y-81885377D01*
X111671035Y-82373958D01*
X111917388Y-82465000D01*
X111750000Y-82465000D01*
X111449594Y-82524755D01*
X111194921Y-82694921D01*
X110466100Y-83423742D01*
X110326547Y-83365794D01*
X109676306Y-83365226D01*
X109075345Y-83613538D01*
X108615154Y-84072927D01*
X108365794Y-84673453D01*
X108365575Y-84924267D01*
X106274842Y-87015000D01*
X105973349Y-87015000D01*
X105592451Y-86633438D01*
X105668371Y-86602068D01*
X106100551Y-86170643D01*
X106334733Y-85606670D01*
X106335265Y-84996009D01*
X106102068Y-84431629D01*
X105670643Y-83999449D01*
X105112285Y-83767598D01*
X105165859Y-83687419D01*
X105282704Y-83100000D01*
X105165859Y-82512581D01*
X104833113Y-82014591D01*
X104335123Y-81681845D01*
X103747704Y-81565000D01*
X101852296Y-81565000D01*
X101264877Y-81681845D01*
X100766887Y-82014591D01*
X100710000Y-82099728D01*
X100710000Y-80569930D01*
X100744926Y-80394345D01*
X100804774Y-80304775D01*
X100894345Y-80244926D01*
X101069930Y-80210000D01*
X112168382Y-80210000D01*
X112117443Y-80347837D01*
X112117443Y-80347837D01*
G37*
X112117443Y-80347837D02*
X113090000Y-81320395D01*
X114062557Y-80347837D01*
X114011618Y-80210000D01*
X122228715Y-80210000D01*
X121865154Y-80572927D01*
X121615794Y-81173453D01*
X121615226Y-81823694D01*
X121863538Y-82424655D01*
X122322927Y-82884846D01*
X122923453Y-83134206D01*
X123573694Y-83134774D01*
X124174655Y-82886462D01*
X124625382Y-82436520D01*
X125072927Y-82884846D01*
X125673453Y-83134206D01*
X126323694Y-83134774D01*
X126924655Y-82886462D01*
X127384846Y-82427073D01*
X127634206Y-81826547D01*
X127634774Y-81176306D01*
X127386462Y-80575345D01*
X127021754Y-80210000D01*
X135138715Y-80210000D01*
X134775154Y-80572927D01*
X134525794Y-81173453D01*
X134525226Y-81823694D01*
X134773538Y-82424655D01*
X135232927Y-82884846D01*
X135833453Y-83134206D01*
X136483694Y-83134774D01*
X137084655Y-82886462D01*
X137544846Y-82427073D01*
X137794206Y-81826547D01*
X137794774Y-81176306D01*
X137546462Y-80575345D01*
X137181754Y-80210000D01*
X147930069Y-80210000D01*
X148488338Y-80321046D01*
X148902333Y-80597669D01*
X149178953Y-81011660D01*
X149290000Y-81569931D01*
X149290000Y-84619102D01*
X149120643Y-84449449D01*
X148556670Y-84215267D01*
X147946009Y-84214735D01*
X147381629Y-84447932D01*
X146949449Y-84879357D01*
X146715267Y-85443330D01*
X146714735Y-86053991D01*
X146947932Y-86618371D01*
X147379357Y-87050551D01*
X147465000Y-87086113D01*
X147465000Y-90354842D01*
X147085080Y-89974922D01*
X146830408Y-89804756D01*
X146530001Y-89745001D01*
X141562654Y-89745001D01*
X141853880Y-89309151D01*
X141963113Y-88760000D01*
X141853880Y-88210849D01*
X141542811Y-87745302D01*
X141160725Y-87490000D01*
X141542811Y-87234698D01*
X141853880Y-86769151D01*
X141963113Y-86220000D01*
X141930092Y-86053991D01*
X142214735Y-86053991D01*
X142447932Y-86618371D01*
X142879357Y-87050551D01*
X143443330Y-87284733D01*
X144053991Y-87285265D01*
X144618371Y-87052068D01*
X145050551Y-86620643D01*
X145284733Y-86056670D01*
X145285265Y-85446009D01*
X145052068Y-84881629D01*
X144620643Y-84449449D01*
X144056670Y-84215267D01*
X143446009Y-84214735D01*
X142881629Y-84447932D01*
X142449449Y-84879357D01*
X142215267Y-85443330D01*
X142214735Y-86053991D01*
X141930092Y-86053991D01*
X141853880Y-85670849D01*
X141542811Y-85205302D01*
X141077264Y-84894233D01*
X140528113Y-84785000D01*
X140471887Y-84785000D01*
X139922736Y-84894233D01*
X139457189Y-85205302D01*
X139146120Y-85670849D01*
X139036887Y-86220000D01*
X139146120Y-86769151D01*
X139457189Y-87234698D01*
X139839275Y-87490000D01*
X139457189Y-87745302D01*
X139146120Y-88210849D01*
X139036887Y-88760000D01*
X139146120Y-89309151D01*
X139457189Y-89774698D01*
X139839275Y-90030000D01*
X139457189Y-90285302D01*
X139146120Y-90750849D01*
X139036887Y-91300000D01*
X139100423Y-91619419D01*
X138924841Y-91795001D01*
X134244651Y-91795001D01*
X134343113Y-91300000D01*
X134233880Y-90750849D01*
X133922811Y-90285302D01*
X133540725Y-90030000D01*
X133922811Y-89774698D01*
X134233880Y-89309151D01*
X134343113Y-88760000D01*
X134233880Y-88210849D01*
X133922811Y-87745302D01*
X133540725Y-87490000D01*
X133922811Y-87234698D01*
X134233880Y-86769151D01*
X134343113Y-86220000D01*
X134233880Y-85670849D01*
X133922811Y-85205302D01*
X133457264Y-84894233D01*
X132908113Y-84785000D01*
X132851887Y-84785000D01*
X132302736Y-84894233D01*
X131837189Y-85205302D01*
X131526120Y-85670849D01*
X131417430Y-86217272D01*
X131395079Y-86194921D01*
X131140407Y-86024755D01*
X130845714Y-85966137D01*
X130884846Y-85927073D01*
X131134206Y-85326547D01*
X131134774Y-84676306D01*
X130886462Y-84075345D01*
X130427073Y-83615154D01*
X129826547Y-83365794D01*
X129176306Y-83365226D01*
X128575345Y-83613538D01*
X128115154Y-84072927D01*
X127865794Y-84673453D01*
X127865226Y-85323694D01*
X128113538Y-85924655D01*
X128153813Y-85965000D01*
X127325152Y-85965000D01*
X126185147Y-84824995D01*
X126185156Y-84814833D01*
X126043111Y-84471057D01*
X125780321Y-84207808D01*
X125436793Y-84065162D01*
X125064827Y-84064838D01*
X124721051Y-84206883D01*
X124457802Y-84469673D01*
X124315156Y-84813201D01*
X124314832Y-85185167D01*
X124456877Y-85528943D01*
X124719667Y-85792192D01*
X125063195Y-85934838D01*
X125074684Y-85934848D01*
X125104836Y-85965000D01*
X123226853Y-85965000D01*
X123264846Y-85927073D01*
X123514206Y-85326547D01*
X123514774Y-84676306D01*
X123266462Y-84075345D01*
X122807073Y-83615154D01*
X122206547Y-83365794D01*
X121556306Y-83365226D01*
X121414130Y-83423972D01*
X120685079Y-82694921D01*
X120430407Y-82524755D01*
X120130000Y-82465000D01*
X114262612Y-82465000D01*
X114508965Y-82373958D01*
X114735401Y-81764418D01*
X114711341Y-81114623D01*
X114508965Y-80626042D01*
X114242163Y-80527443D01*
X113269605Y-81500000D01*
X113283748Y-81514142D01*
X113104142Y-81693748D01*
X113090000Y-81679605D01*
X113075858Y-81693748D01*
X112896252Y-81514142D01*
X112910395Y-81500000D01*
X111937837Y-80527443D01*
X111671035Y-80626042D01*
X111444599Y-81235582D01*
X111468659Y-81885377D01*
X111671035Y-82373958D01*
X111917388Y-82465000D01*
X111750000Y-82465000D01*
X111449594Y-82524755D01*
X111194921Y-82694921D01*
X110466100Y-83423742D01*
X110326547Y-83365794D01*
X109676306Y-83365226D01*
X109075345Y-83613538D01*
X108615154Y-84072927D01*
X108365794Y-84673453D01*
X108365575Y-84924267D01*
X106274842Y-87015000D01*
X105973349Y-87015000D01*
X105592451Y-86633438D01*
X105668371Y-86602068D01*
X106100551Y-86170643D01*
X106334733Y-85606670D01*
X106335265Y-84996009D01*
X106102068Y-84431629D01*
X105670643Y-83999449D01*
X105112285Y-83767598D01*
X105165859Y-83687419D01*
X105282704Y-83100000D01*
X105165859Y-82512581D01*
X104833113Y-82014591D01*
X104335123Y-81681845D01*
X103747704Y-81565000D01*
X101852296Y-81565000D01*
X101264877Y-81681845D01*
X100766887Y-82014591D01*
X100710000Y-82099728D01*
X100710000Y-80569930D01*
X100744926Y-80394345D01*
X100804774Y-80304775D01*
X100894345Y-80244926D01*
X101069930Y-80210000D01*
X112168382Y-80210000D01*
X112117443Y-80347837D01*
M02*
