G04 #@! TF.FileFunction,Copper,L2,Bot,Signal*
%FSLAX46Y46*%
G04 Gerber Fmt 4.6, Leading zero omitted, Abs format (unit mm)*
G04 Created by KiCad (PCBNEW 4.0.2-stable) date Tue 01 Mar 2016 12:52:29 PM EST*
%MOMM*%
G01*
G04 APERTURE LIST*
%ADD10C,0.100000*%
%ADD11C,1.800000*%
%ADD12C,1.500000*%
%ADD13O,3.600000X1.800000*%
%ADD14O,1.600000X1.600000*%
%ADD15C,1.998980*%
%ADD16R,2.000000X1.900000*%
%ADD17C,1.900000*%
%ADD18C,0.600000*%
%ADD19C,0.300000*%
%ADD20C,0.254000*%
G04 APERTURE END LIST*
D10*
D11*
X104800000Y-85300000D03*
X104800000Y-92300000D03*
D12*
X104800000Y-87800000D03*
X104800000Y-89800000D03*
D13*
X102800000Y-83100000D03*
X102800000Y-94500000D03*
D12*
X102800000Y-86550000D03*
X102800000Y-91050000D03*
D14*
X140500000Y-93840000D03*
X140500000Y-91300000D03*
X140500000Y-88760000D03*
X140500000Y-86220000D03*
X132880000Y-86220000D03*
X132880000Y-88760000D03*
X132880000Y-91300000D03*
X132880000Y-93840000D03*
D15*
X120750000Y-95750000D03*
X113130000Y-95750000D03*
X122000000Y-88500000D03*
X129620000Y-88500000D03*
X121880000Y-85000000D03*
X129500000Y-85000000D03*
D16*
X126500000Y-93000000D03*
D17*
X126500000Y-95540000D03*
D15*
X110590000Y-92000000D03*
X120750000Y-92000000D03*
X113090000Y-81500000D03*
X123250000Y-81500000D03*
X117620000Y-88250000D03*
X110000000Y-88250000D03*
X117620000Y-85000000D03*
X110000000Y-85000000D03*
X126000000Y-81500000D03*
X136160000Y-81500000D03*
D11*
X143750000Y-85750000D03*
X143750000Y-92250000D03*
X148250000Y-85750000D03*
X148250000Y-92250000D03*
D18*
X125249994Y-85000000D03*
D19*
X107500000Y-89600000D02*
X107500000Y-85354752D01*
X107500000Y-85354752D02*
X111354752Y-81500000D01*
X111354752Y-81500000D02*
X111676508Y-81500000D01*
X111676508Y-81500000D02*
X113090000Y-81500000D01*
X104800000Y-92300000D02*
X107500000Y-89600000D01*
X126399989Y-85513503D02*
X126399989Y-84649989D01*
X122000000Y-88500000D02*
X123413492Y-88500000D01*
X123413492Y-88500000D02*
X126399989Y-85513503D01*
X124249489Y-82499489D02*
X123250000Y-81500000D01*
X126399989Y-84649989D02*
X124249489Y-82499489D01*
X126500000Y-93000000D02*
X127265248Y-93000000D01*
X127265248Y-93000000D02*
X131250000Y-89015248D01*
X127250000Y-85000000D02*
X127250000Y-82750000D01*
X131250000Y-89015248D02*
X131250000Y-87500000D01*
X131250000Y-87500000D02*
X130500000Y-86750000D01*
X130500000Y-86750000D02*
X129000000Y-86750000D01*
X129000000Y-86750000D02*
X127250000Y-85000000D01*
X127250000Y-82750000D02*
X126000000Y-81500000D01*
X140500000Y-88790000D02*
X133750000Y-95540000D01*
X133750000Y-95540000D02*
X126500000Y-95540000D01*
X124949995Y-85299999D02*
X125249994Y-85000000D01*
X118819491Y-87050509D02*
X123199485Y-87050509D01*
X117620000Y-88250000D02*
X118819491Y-87050509D01*
X123199485Y-87050509D02*
X124949995Y-85299999D01*
D20*
G36*
X135187443Y-80347837D02*
X136160000Y-81320395D01*
X137132557Y-80347837D01*
X137081618Y-80210000D01*
X147930069Y-80210000D01*
X148488338Y-80321046D01*
X148902333Y-80597669D01*
X149178953Y-81011660D01*
X149290000Y-81569931D01*
X149290000Y-84619102D01*
X149120643Y-84449449D01*
X148556670Y-84215267D01*
X147946009Y-84214735D01*
X147381629Y-84447932D01*
X146949449Y-84879357D01*
X146715267Y-85443330D01*
X146714735Y-86053991D01*
X146947932Y-86618371D01*
X147379357Y-87050551D01*
X147943330Y-87284733D01*
X148553991Y-87285265D01*
X149118371Y-87052068D01*
X149290000Y-86880739D01*
X149290000Y-91119102D01*
X149120643Y-90949449D01*
X148556670Y-90715267D01*
X147946009Y-90714735D01*
X147381629Y-90947932D01*
X146949449Y-91379357D01*
X146715267Y-91943330D01*
X146714735Y-92553991D01*
X146947932Y-93118371D01*
X147379357Y-93550551D01*
X147943330Y-93784733D01*
X148553991Y-93785265D01*
X149118371Y-93552068D01*
X149290000Y-93380739D01*
X149290000Y-95680069D01*
X149178953Y-96238340D01*
X148902333Y-96652331D01*
X148488338Y-96928954D01*
X147930069Y-97040000D01*
X127020274Y-97040000D01*
X127396657Y-96884481D01*
X127842914Y-96439003D01*
X127890252Y-96325000D01*
X133750000Y-96325000D01*
X134050407Y-96265245D01*
X134305079Y-96095079D01*
X139047384Y-91352774D01*
X139146120Y-91849151D01*
X139457189Y-92314698D01*
X139839275Y-92570000D01*
X139457189Y-92825302D01*
X139146120Y-93290849D01*
X139036887Y-93840000D01*
X139146120Y-94389151D01*
X139457189Y-94854698D01*
X139922736Y-95165767D01*
X140471887Y-95275000D01*
X140528113Y-95275000D01*
X141077264Y-95165767D01*
X141542811Y-94854698D01*
X141853880Y-94389151D01*
X141963113Y-93840000D01*
X141861700Y-93330159D01*
X142849446Y-93330159D01*
X142935852Y-93586643D01*
X143509336Y-93796458D01*
X144119460Y-93770839D01*
X144564148Y-93586643D01*
X144650554Y-93330159D01*
X143750000Y-92429605D01*
X142849446Y-93330159D01*
X141861700Y-93330159D01*
X141853880Y-93290849D01*
X141542811Y-92825302D01*
X141160725Y-92570000D01*
X141542811Y-92314698D01*
X141746847Y-92009336D01*
X142203542Y-92009336D01*
X142229161Y-92619460D01*
X142413357Y-93064148D01*
X142669841Y-93150554D01*
X143570395Y-92250000D01*
X143929605Y-92250000D01*
X144830159Y-93150554D01*
X145086643Y-93064148D01*
X145296458Y-92490664D01*
X145270839Y-91880540D01*
X145086643Y-91435852D01*
X144830159Y-91349446D01*
X143929605Y-92250000D01*
X143570395Y-92250000D01*
X142669841Y-91349446D01*
X142413357Y-91435852D01*
X142203542Y-92009336D01*
X141746847Y-92009336D01*
X141853880Y-91849151D01*
X141963113Y-91300000D01*
X141937223Y-91169841D01*
X142849446Y-91169841D01*
X143750000Y-92070395D01*
X144650554Y-91169841D01*
X144564148Y-90913357D01*
X143990664Y-90703542D01*
X143380540Y-90729161D01*
X142935852Y-90913357D01*
X142849446Y-91169841D01*
X141937223Y-91169841D01*
X141853880Y-90750849D01*
X141542811Y-90285302D01*
X141160725Y-90030000D01*
X141542811Y-89774698D01*
X141853880Y-89309151D01*
X141963113Y-88760000D01*
X141853880Y-88210849D01*
X141542811Y-87745302D01*
X141138297Y-87475014D01*
X141355134Y-87372389D01*
X141731041Y-86957423D01*
X141783751Y-86830159D01*
X142849446Y-86830159D01*
X142935852Y-87086643D01*
X143509336Y-87296458D01*
X144119460Y-87270839D01*
X144564148Y-87086643D01*
X144650554Y-86830159D01*
X143750000Y-85929605D01*
X142849446Y-86830159D01*
X141783751Y-86830159D01*
X141891904Y-86569039D01*
X141769915Y-86347000D01*
X140627000Y-86347000D01*
X140627000Y-86367000D01*
X140373000Y-86367000D01*
X140373000Y-86347000D01*
X139230085Y-86347000D01*
X139108096Y-86569039D01*
X139268959Y-86957423D01*
X139644866Y-87372389D01*
X139861703Y-87475014D01*
X139457189Y-87745302D01*
X139146120Y-88210849D01*
X139036887Y-88760000D01*
X139100423Y-89079419D01*
X134342570Y-93837272D01*
X134233880Y-93290849D01*
X133922811Y-92825302D01*
X133540725Y-92570000D01*
X133922811Y-92314698D01*
X134233880Y-91849151D01*
X134343113Y-91300000D01*
X134233880Y-90750849D01*
X133922811Y-90285302D01*
X133540725Y-90030000D01*
X133922811Y-89774698D01*
X134233880Y-89309151D01*
X134343113Y-88760000D01*
X134233880Y-88210849D01*
X133922811Y-87745302D01*
X133540725Y-87490000D01*
X133922811Y-87234698D01*
X134233880Y-86769151D01*
X134343113Y-86220000D01*
X134273685Y-85870961D01*
X139108096Y-85870961D01*
X139230085Y-86093000D01*
X140373000Y-86093000D01*
X140373000Y-84949371D01*
X140627000Y-84949371D01*
X140627000Y-86093000D01*
X141769915Y-86093000D01*
X141891904Y-85870961D01*
X141742125Y-85509336D01*
X142203542Y-85509336D01*
X142229161Y-86119460D01*
X142413357Y-86564148D01*
X142669841Y-86650554D01*
X143570395Y-85750000D01*
X143929605Y-85750000D01*
X144830159Y-86650554D01*
X145086643Y-86564148D01*
X145296458Y-85990664D01*
X145270839Y-85380540D01*
X145086643Y-84935852D01*
X144830159Y-84849446D01*
X143929605Y-85750000D01*
X143570395Y-85750000D01*
X142669841Y-84849446D01*
X142413357Y-84935852D01*
X142203542Y-85509336D01*
X141742125Y-85509336D01*
X141731041Y-85482577D01*
X141355134Y-85067611D01*
X140849041Y-84828086D01*
X140627000Y-84949371D01*
X140373000Y-84949371D01*
X140150959Y-84828086D01*
X139644866Y-85067611D01*
X139268959Y-85482577D01*
X139108096Y-85870961D01*
X134273685Y-85870961D01*
X134233880Y-85670849D01*
X133922811Y-85205302D01*
X133457264Y-84894233D01*
X132908113Y-84785000D01*
X132851887Y-84785000D01*
X132302736Y-84894233D01*
X131837189Y-85205302D01*
X131526120Y-85670849D01*
X131416887Y-86220000D01*
X131500498Y-86640340D01*
X131055079Y-86194921D01*
X130800407Y-86024755D01*
X130680515Y-86000907D01*
X130652164Y-85972556D01*
X130918965Y-85873958D01*
X131145401Y-85264418D01*
X131123386Y-84669841D01*
X142849446Y-84669841D01*
X143750000Y-85570395D01*
X144650554Y-84669841D01*
X144564148Y-84413357D01*
X143990664Y-84203542D01*
X143380540Y-84229161D01*
X142935852Y-84413357D01*
X142849446Y-84669841D01*
X131123386Y-84669841D01*
X131121341Y-84614623D01*
X130918965Y-84126042D01*
X130652163Y-84027443D01*
X129679605Y-85000000D01*
X129693748Y-85014142D01*
X129514142Y-85193748D01*
X129500000Y-85179605D01*
X129485858Y-85193748D01*
X129306252Y-85014142D01*
X129320395Y-85000000D01*
X128347837Y-84027443D01*
X128081035Y-84126042D01*
X128035000Y-84249963D01*
X128035000Y-83847837D01*
X128527443Y-83847837D01*
X129500000Y-84820395D01*
X130472557Y-83847837D01*
X130373958Y-83581035D01*
X129764418Y-83354599D01*
X129114623Y-83378659D01*
X128626042Y-83581035D01*
X128527443Y-83847837D01*
X128035000Y-83847837D01*
X128035000Y-82750000D01*
X128015539Y-82652163D01*
X135187443Y-82652163D01*
X135286042Y-82918965D01*
X135895582Y-83145401D01*
X136545377Y-83121341D01*
X137033958Y-82918965D01*
X137132557Y-82652163D01*
X136160000Y-81679605D01*
X135187443Y-82652163D01*
X128015539Y-82652163D01*
X127975245Y-82449594D01*
X127975245Y-82449593D01*
X127805079Y-82194921D01*
X127576258Y-81966100D01*
X127634206Y-81826547D01*
X127634722Y-81235582D01*
X134514599Y-81235582D01*
X134538659Y-81885377D01*
X134741035Y-82373958D01*
X135007837Y-82472557D01*
X135980395Y-81500000D01*
X136339605Y-81500000D01*
X137312163Y-82472557D01*
X137578965Y-82373958D01*
X137805401Y-81764418D01*
X137781341Y-81114623D01*
X137578965Y-80626042D01*
X137312163Y-80527443D01*
X136339605Y-81500000D01*
X135980395Y-81500000D01*
X135007837Y-80527443D01*
X134741035Y-80626042D01*
X134514599Y-81235582D01*
X127634722Y-81235582D01*
X127634774Y-81176306D01*
X127386462Y-80575345D01*
X127021754Y-80210000D01*
X135238382Y-80210000D01*
X135187443Y-80347837D01*
X135187443Y-80347837D01*
G37*
X135187443Y-80347837D02*
X136160000Y-81320395D01*
X137132557Y-80347837D01*
X137081618Y-80210000D01*
X147930069Y-80210000D01*
X148488338Y-80321046D01*
X148902333Y-80597669D01*
X149178953Y-81011660D01*
X149290000Y-81569931D01*
X149290000Y-84619102D01*
X149120643Y-84449449D01*
X148556670Y-84215267D01*
X147946009Y-84214735D01*
X147381629Y-84447932D01*
X146949449Y-84879357D01*
X146715267Y-85443330D01*
X146714735Y-86053991D01*
X146947932Y-86618371D01*
X147379357Y-87050551D01*
X147943330Y-87284733D01*
X148553991Y-87285265D01*
X149118371Y-87052068D01*
X149290000Y-86880739D01*
X149290000Y-91119102D01*
X149120643Y-90949449D01*
X148556670Y-90715267D01*
X147946009Y-90714735D01*
X147381629Y-90947932D01*
X146949449Y-91379357D01*
X146715267Y-91943330D01*
X146714735Y-92553991D01*
X146947932Y-93118371D01*
X147379357Y-93550551D01*
X147943330Y-93784733D01*
X148553991Y-93785265D01*
X149118371Y-93552068D01*
X149290000Y-93380739D01*
X149290000Y-95680069D01*
X149178953Y-96238340D01*
X148902333Y-96652331D01*
X148488338Y-96928954D01*
X147930069Y-97040000D01*
X127020274Y-97040000D01*
X127396657Y-96884481D01*
X127842914Y-96439003D01*
X127890252Y-96325000D01*
X133750000Y-96325000D01*
X134050407Y-96265245D01*
X134305079Y-96095079D01*
X139047384Y-91352774D01*
X139146120Y-91849151D01*
X139457189Y-92314698D01*
X139839275Y-92570000D01*
X139457189Y-92825302D01*
X139146120Y-93290849D01*
X139036887Y-93840000D01*
X139146120Y-94389151D01*
X139457189Y-94854698D01*
X139922736Y-95165767D01*
X140471887Y-95275000D01*
X140528113Y-95275000D01*
X141077264Y-95165767D01*
X141542811Y-94854698D01*
X141853880Y-94389151D01*
X141963113Y-93840000D01*
X141861700Y-93330159D01*
X142849446Y-93330159D01*
X142935852Y-93586643D01*
X143509336Y-93796458D01*
X144119460Y-93770839D01*
X144564148Y-93586643D01*
X144650554Y-93330159D01*
X143750000Y-92429605D01*
X142849446Y-93330159D01*
X141861700Y-93330159D01*
X141853880Y-93290849D01*
X141542811Y-92825302D01*
X141160725Y-92570000D01*
X141542811Y-92314698D01*
X141746847Y-92009336D01*
X142203542Y-92009336D01*
X142229161Y-92619460D01*
X142413357Y-93064148D01*
X142669841Y-93150554D01*
X143570395Y-92250000D01*
X143929605Y-92250000D01*
X144830159Y-93150554D01*
X145086643Y-93064148D01*
X145296458Y-92490664D01*
X145270839Y-91880540D01*
X145086643Y-91435852D01*
X144830159Y-91349446D01*
X143929605Y-92250000D01*
X143570395Y-92250000D01*
X142669841Y-91349446D01*
X142413357Y-91435852D01*
X142203542Y-92009336D01*
X141746847Y-92009336D01*
X141853880Y-91849151D01*
X141963113Y-91300000D01*
X141937223Y-91169841D01*
X142849446Y-91169841D01*
X143750000Y-92070395D01*
X144650554Y-91169841D01*
X144564148Y-90913357D01*
X143990664Y-90703542D01*
X143380540Y-90729161D01*
X142935852Y-90913357D01*
X142849446Y-91169841D01*
X141937223Y-91169841D01*
X141853880Y-90750849D01*
X141542811Y-90285302D01*
X141160725Y-90030000D01*
X141542811Y-89774698D01*
X141853880Y-89309151D01*
X141963113Y-88760000D01*
X141853880Y-88210849D01*
X141542811Y-87745302D01*
X141138297Y-87475014D01*
X141355134Y-87372389D01*
X141731041Y-86957423D01*
X141783751Y-86830159D01*
X142849446Y-86830159D01*
X142935852Y-87086643D01*
X143509336Y-87296458D01*
X144119460Y-87270839D01*
X144564148Y-87086643D01*
X144650554Y-86830159D01*
X143750000Y-85929605D01*
X142849446Y-86830159D01*
X141783751Y-86830159D01*
X141891904Y-86569039D01*
X141769915Y-86347000D01*
X140627000Y-86347000D01*
X140627000Y-86367000D01*
X140373000Y-86367000D01*
X140373000Y-86347000D01*
X139230085Y-86347000D01*
X139108096Y-86569039D01*
X139268959Y-86957423D01*
X139644866Y-87372389D01*
X139861703Y-87475014D01*
X139457189Y-87745302D01*
X139146120Y-88210849D01*
X139036887Y-88760000D01*
X139100423Y-89079419D01*
X134342570Y-93837272D01*
X134233880Y-93290849D01*
X133922811Y-92825302D01*
X133540725Y-92570000D01*
X133922811Y-92314698D01*
X134233880Y-91849151D01*
X134343113Y-91300000D01*
X134233880Y-90750849D01*
X133922811Y-90285302D01*
X133540725Y-90030000D01*
X133922811Y-89774698D01*
X134233880Y-89309151D01*
X134343113Y-88760000D01*
X134233880Y-88210849D01*
X133922811Y-87745302D01*
X133540725Y-87490000D01*
X133922811Y-87234698D01*
X134233880Y-86769151D01*
X134343113Y-86220000D01*
X134273685Y-85870961D01*
X139108096Y-85870961D01*
X139230085Y-86093000D01*
X140373000Y-86093000D01*
X140373000Y-84949371D01*
X140627000Y-84949371D01*
X140627000Y-86093000D01*
X141769915Y-86093000D01*
X141891904Y-85870961D01*
X141742125Y-85509336D01*
X142203542Y-85509336D01*
X142229161Y-86119460D01*
X142413357Y-86564148D01*
X142669841Y-86650554D01*
X143570395Y-85750000D01*
X143929605Y-85750000D01*
X144830159Y-86650554D01*
X145086643Y-86564148D01*
X145296458Y-85990664D01*
X145270839Y-85380540D01*
X145086643Y-84935852D01*
X144830159Y-84849446D01*
X143929605Y-85750000D01*
X143570395Y-85750000D01*
X142669841Y-84849446D01*
X142413357Y-84935852D01*
X142203542Y-85509336D01*
X141742125Y-85509336D01*
X141731041Y-85482577D01*
X141355134Y-85067611D01*
X140849041Y-84828086D01*
X140627000Y-84949371D01*
X140373000Y-84949371D01*
X140150959Y-84828086D01*
X139644866Y-85067611D01*
X139268959Y-85482577D01*
X139108096Y-85870961D01*
X134273685Y-85870961D01*
X134233880Y-85670849D01*
X133922811Y-85205302D01*
X133457264Y-84894233D01*
X132908113Y-84785000D01*
X132851887Y-84785000D01*
X132302736Y-84894233D01*
X131837189Y-85205302D01*
X131526120Y-85670849D01*
X131416887Y-86220000D01*
X131500498Y-86640340D01*
X131055079Y-86194921D01*
X130800407Y-86024755D01*
X130680515Y-86000907D01*
X130652164Y-85972556D01*
X130918965Y-85873958D01*
X131145401Y-85264418D01*
X131123386Y-84669841D01*
X142849446Y-84669841D01*
X143750000Y-85570395D01*
X144650554Y-84669841D01*
X144564148Y-84413357D01*
X143990664Y-84203542D01*
X143380540Y-84229161D01*
X142935852Y-84413357D01*
X142849446Y-84669841D01*
X131123386Y-84669841D01*
X131121341Y-84614623D01*
X130918965Y-84126042D01*
X130652163Y-84027443D01*
X129679605Y-85000000D01*
X129693748Y-85014142D01*
X129514142Y-85193748D01*
X129500000Y-85179605D01*
X129485858Y-85193748D01*
X129306252Y-85014142D01*
X129320395Y-85000000D01*
X128347837Y-84027443D01*
X128081035Y-84126042D01*
X128035000Y-84249963D01*
X128035000Y-83847837D01*
X128527443Y-83847837D01*
X129500000Y-84820395D01*
X130472557Y-83847837D01*
X130373958Y-83581035D01*
X129764418Y-83354599D01*
X129114623Y-83378659D01*
X128626042Y-83581035D01*
X128527443Y-83847837D01*
X128035000Y-83847837D01*
X128035000Y-82750000D01*
X128015539Y-82652163D01*
X135187443Y-82652163D01*
X135286042Y-82918965D01*
X135895582Y-83145401D01*
X136545377Y-83121341D01*
X137033958Y-82918965D01*
X137132557Y-82652163D01*
X136160000Y-81679605D01*
X135187443Y-82652163D01*
X128015539Y-82652163D01*
X127975245Y-82449594D01*
X127975245Y-82449593D01*
X127805079Y-82194921D01*
X127576258Y-81966100D01*
X127634206Y-81826547D01*
X127634722Y-81235582D01*
X134514599Y-81235582D01*
X134538659Y-81885377D01*
X134741035Y-82373958D01*
X135007837Y-82472557D01*
X135980395Y-81500000D01*
X136339605Y-81500000D01*
X137312163Y-82472557D01*
X137578965Y-82373958D01*
X137805401Y-81764418D01*
X137781341Y-81114623D01*
X137578965Y-80626042D01*
X137312163Y-80527443D01*
X136339605Y-81500000D01*
X135980395Y-81500000D01*
X135007837Y-80527443D01*
X134741035Y-80626042D01*
X134514599Y-81235582D01*
X127634722Y-81235582D01*
X127634774Y-81176306D01*
X127386462Y-80575345D01*
X127021754Y-80210000D01*
X135238382Y-80210000D01*
X135187443Y-80347837D01*
G36*
X121865154Y-80572927D02*
X121615794Y-81173453D01*
X121615226Y-81823694D01*
X121863538Y-82424655D01*
X122322927Y-82884846D01*
X122923453Y-83134206D01*
X123573694Y-83134774D01*
X123715870Y-83076028D01*
X124809980Y-84170138D01*
X124721051Y-84206883D01*
X124457802Y-84469673D01*
X124315156Y-84813201D01*
X124315146Y-84824690D01*
X123301830Y-85838006D01*
X123514206Y-85326547D01*
X123514774Y-84676306D01*
X123266462Y-84075345D01*
X122807073Y-83615154D01*
X122206547Y-83365794D01*
X121556306Y-83365226D01*
X120955345Y-83613538D01*
X120495154Y-84072927D01*
X120245794Y-84673453D01*
X120245226Y-85323694D01*
X120493538Y-85924655D01*
X120833798Y-86265509D01*
X118819491Y-86265509D01*
X118627578Y-86303683D01*
X119004846Y-85927073D01*
X119254206Y-85326547D01*
X119254774Y-84676306D01*
X119006462Y-84075345D01*
X118547073Y-83615154D01*
X117946547Y-83365794D01*
X117296306Y-83365226D01*
X116695345Y-83613538D01*
X116235154Y-84072927D01*
X115985794Y-84673453D01*
X115985226Y-85323694D01*
X116233538Y-85924655D01*
X116692927Y-86384846D01*
X117271965Y-86625283D01*
X116695345Y-86863538D01*
X116235154Y-87322927D01*
X115985794Y-87923453D01*
X115985226Y-88573694D01*
X116233538Y-89174655D01*
X116692927Y-89634846D01*
X117293453Y-89884206D01*
X117943694Y-89884774D01*
X118544655Y-89636462D01*
X119004846Y-89177073D01*
X119254206Y-88576547D01*
X119254774Y-87926306D01*
X119217257Y-87835509D01*
X120506121Y-87835509D01*
X120365794Y-88173453D01*
X120365226Y-88823694D01*
X120613538Y-89424655D01*
X121072927Y-89884846D01*
X121673453Y-90134206D01*
X122323694Y-90134774D01*
X122924655Y-89886462D01*
X123384846Y-89427073D01*
X123446572Y-89278420D01*
X123713899Y-89225245D01*
X123968571Y-89055079D01*
X124788068Y-88235582D01*
X127974599Y-88235582D01*
X127998659Y-88885377D01*
X128201035Y-89373958D01*
X128467837Y-89472557D01*
X129440395Y-88500000D01*
X128467837Y-87527443D01*
X128201035Y-87626042D01*
X127974599Y-88235582D01*
X124788068Y-88235582D01*
X126955068Y-86068582D01*
X127056548Y-85916706D01*
X128444921Y-87305079D01*
X128699594Y-87475245D01*
X128793538Y-87493932D01*
X129620000Y-88320395D01*
X129634142Y-88306252D01*
X129813748Y-88485858D01*
X129799605Y-88500000D01*
X129813748Y-88514142D01*
X129634142Y-88693748D01*
X129620000Y-88679605D01*
X128647443Y-89652163D01*
X128746042Y-89918965D01*
X129103379Y-90051711D01*
X127710003Y-91445087D01*
X127500000Y-91402560D01*
X125500000Y-91402560D01*
X125264683Y-91446838D01*
X125048559Y-91585910D01*
X124903569Y-91798110D01*
X124852560Y-92050000D01*
X124852560Y-93950000D01*
X124896838Y-94185317D01*
X125035910Y-94401441D01*
X125248110Y-94546431D01*
X125251192Y-94547055D01*
X125157086Y-94640997D01*
X124915276Y-95223341D01*
X124914725Y-95853893D01*
X125155519Y-96436657D01*
X125600997Y-96882914D01*
X125979303Y-97040000D01*
X121771285Y-97040000D01*
X122134846Y-96677073D01*
X122384206Y-96076547D01*
X122384774Y-95426306D01*
X122136462Y-94825345D01*
X121677073Y-94365154D01*
X121076547Y-94115794D01*
X120426306Y-94115226D01*
X119825345Y-94363538D01*
X119365154Y-94822927D01*
X119115794Y-95423453D01*
X119115226Y-96073694D01*
X119363538Y-96674655D01*
X119728246Y-97040000D01*
X114051618Y-97040000D01*
X114102557Y-96902163D01*
X113130000Y-95929605D01*
X112157443Y-96902163D01*
X112208382Y-97040000D01*
X101069930Y-97040000D01*
X100894345Y-97005074D01*
X100804774Y-96945225D01*
X100744926Y-96855655D01*
X100710000Y-96680070D01*
X100710000Y-95500272D01*
X100766887Y-95585409D01*
X101264877Y-95918155D01*
X101852296Y-96035000D01*
X103747704Y-96035000D01*
X104335123Y-95918155D01*
X104833113Y-95585409D01*
X104899815Y-95485582D01*
X111484599Y-95485582D01*
X111508659Y-96135377D01*
X111711035Y-96623958D01*
X111977837Y-96722557D01*
X112950395Y-95750000D01*
X113309605Y-95750000D01*
X114282163Y-96722557D01*
X114548965Y-96623958D01*
X114775401Y-96014418D01*
X114751341Y-95364623D01*
X114548965Y-94876042D01*
X114282163Y-94777443D01*
X113309605Y-95750000D01*
X112950395Y-95750000D01*
X111977837Y-94777443D01*
X111711035Y-94876042D01*
X111484599Y-95485582D01*
X104899815Y-95485582D01*
X105165859Y-95087419D01*
X105263242Y-94597837D01*
X112157443Y-94597837D01*
X113130000Y-95570395D01*
X114102557Y-94597837D01*
X114003958Y-94331035D01*
X113394418Y-94104599D01*
X112744623Y-94128659D01*
X112256042Y-94331035D01*
X112157443Y-94597837D01*
X105263242Y-94597837D01*
X105282704Y-94500000D01*
X105165859Y-93912581D01*
X105111990Y-93831960D01*
X105668371Y-93602068D01*
X106100551Y-93170643D01*
X106334733Y-92606670D01*
X106334979Y-92323694D01*
X108955226Y-92323694D01*
X109203538Y-92924655D01*
X109662927Y-93384846D01*
X110263453Y-93634206D01*
X110913694Y-93634774D01*
X111514655Y-93386462D01*
X111974846Y-92927073D01*
X112224206Y-92326547D01*
X112224208Y-92323694D01*
X119115226Y-92323694D01*
X119363538Y-92924655D01*
X119822927Y-93384846D01*
X120423453Y-93634206D01*
X121073694Y-93634774D01*
X121674655Y-93386462D01*
X122134846Y-92927073D01*
X122384206Y-92326547D01*
X122384774Y-91676306D01*
X122136462Y-91075345D01*
X121677073Y-90615154D01*
X121076547Y-90365794D01*
X120426306Y-90365226D01*
X119825345Y-90613538D01*
X119365154Y-91072927D01*
X119115794Y-91673453D01*
X119115226Y-92323694D01*
X112224208Y-92323694D01*
X112224774Y-91676306D01*
X111976462Y-91075345D01*
X111517073Y-90615154D01*
X110916547Y-90365794D01*
X110266306Y-90365226D01*
X109665345Y-90613538D01*
X109205154Y-91072927D01*
X108955794Y-91673453D01*
X108955226Y-92323694D01*
X106334979Y-92323694D01*
X106335265Y-91996009D01*
X106299853Y-91910305D01*
X108055079Y-90155079D01*
X108225245Y-89900406D01*
X108285001Y-89600000D01*
X108285000Y-89599995D01*
X108285000Y-85679910D01*
X108445920Y-85518990D01*
X108613538Y-85924655D01*
X109072927Y-86384846D01*
X109651965Y-86625283D01*
X109075345Y-86863538D01*
X108615154Y-87322927D01*
X108365794Y-87923453D01*
X108365226Y-88573694D01*
X108613538Y-89174655D01*
X109072927Y-89634846D01*
X109673453Y-89884206D01*
X110323694Y-89884774D01*
X110924655Y-89636462D01*
X111384846Y-89177073D01*
X111634206Y-88576547D01*
X111634774Y-87926306D01*
X111386462Y-87325345D01*
X110927073Y-86865154D01*
X110348035Y-86624717D01*
X110924655Y-86386462D01*
X111384846Y-85927073D01*
X111634206Y-85326547D01*
X111634774Y-84676306D01*
X111386462Y-84075345D01*
X110927073Y-83615154D01*
X110519143Y-83445767D01*
X111655797Y-82309113D01*
X111703538Y-82424655D01*
X112162927Y-82884846D01*
X112763453Y-83134206D01*
X113413694Y-83134774D01*
X114014655Y-82886462D01*
X114474846Y-82427073D01*
X114724206Y-81826547D01*
X114724774Y-81176306D01*
X114476462Y-80575345D01*
X114111754Y-80210000D01*
X122228715Y-80210000D01*
X121865154Y-80572927D01*
X121865154Y-80572927D01*
G37*
X121865154Y-80572927D02*
X121615794Y-81173453D01*
X121615226Y-81823694D01*
X121863538Y-82424655D01*
X122322927Y-82884846D01*
X122923453Y-83134206D01*
X123573694Y-83134774D01*
X123715870Y-83076028D01*
X124809980Y-84170138D01*
X124721051Y-84206883D01*
X124457802Y-84469673D01*
X124315156Y-84813201D01*
X124315146Y-84824690D01*
X123301830Y-85838006D01*
X123514206Y-85326547D01*
X123514774Y-84676306D01*
X123266462Y-84075345D01*
X122807073Y-83615154D01*
X122206547Y-83365794D01*
X121556306Y-83365226D01*
X120955345Y-83613538D01*
X120495154Y-84072927D01*
X120245794Y-84673453D01*
X120245226Y-85323694D01*
X120493538Y-85924655D01*
X120833798Y-86265509D01*
X118819491Y-86265509D01*
X118627578Y-86303683D01*
X119004846Y-85927073D01*
X119254206Y-85326547D01*
X119254774Y-84676306D01*
X119006462Y-84075345D01*
X118547073Y-83615154D01*
X117946547Y-83365794D01*
X117296306Y-83365226D01*
X116695345Y-83613538D01*
X116235154Y-84072927D01*
X115985794Y-84673453D01*
X115985226Y-85323694D01*
X116233538Y-85924655D01*
X116692927Y-86384846D01*
X117271965Y-86625283D01*
X116695345Y-86863538D01*
X116235154Y-87322927D01*
X115985794Y-87923453D01*
X115985226Y-88573694D01*
X116233538Y-89174655D01*
X116692927Y-89634846D01*
X117293453Y-89884206D01*
X117943694Y-89884774D01*
X118544655Y-89636462D01*
X119004846Y-89177073D01*
X119254206Y-88576547D01*
X119254774Y-87926306D01*
X119217257Y-87835509D01*
X120506121Y-87835509D01*
X120365794Y-88173453D01*
X120365226Y-88823694D01*
X120613538Y-89424655D01*
X121072927Y-89884846D01*
X121673453Y-90134206D01*
X122323694Y-90134774D01*
X122924655Y-89886462D01*
X123384846Y-89427073D01*
X123446572Y-89278420D01*
X123713899Y-89225245D01*
X123968571Y-89055079D01*
X124788068Y-88235582D01*
X127974599Y-88235582D01*
X127998659Y-88885377D01*
X128201035Y-89373958D01*
X128467837Y-89472557D01*
X129440395Y-88500000D01*
X128467837Y-87527443D01*
X128201035Y-87626042D01*
X127974599Y-88235582D01*
X124788068Y-88235582D01*
X126955068Y-86068582D01*
X127056548Y-85916706D01*
X128444921Y-87305079D01*
X128699594Y-87475245D01*
X128793538Y-87493932D01*
X129620000Y-88320395D01*
X129634142Y-88306252D01*
X129813748Y-88485858D01*
X129799605Y-88500000D01*
X129813748Y-88514142D01*
X129634142Y-88693748D01*
X129620000Y-88679605D01*
X128647443Y-89652163D01*
X128746042Y-89918965D01*
X129103379Y-90051711D01*
X127710003Y-91445087D01*
X127500000Y-91402560D01*
X125500000Y-91402560D01*
X125264683Y-91446838D01*
X125048559Y-91585910D01*
X124903569Y-91798110D01*
X124852560Y-92050000D01*
X124852560Y-93950000D01*
X124896838Y-94185317D01*
X125035910Y-94401441D01*
X125248110Y-94546431D01*
X125251192Y-94547055D01*
X125157086Y-94640997D01*
X124915276Y-95223341D01*
X124914725Y-95853893D01*
X125155519Y-96436657D01*
X125600997Y-96882914D01*
X125979303Y-97040000D01*
X121771285Y-97040000D01*
X122134846Y-96677073D01*
X122384206Y-96076547D01*
X122384774Y-95426306D01*
X122136462Y-94825345D01*
X121677073Y-94365154D01*
X121076547Y-94115794D01*
X120426306Y-94115226D01*
X119825345Y-94363538D01*
X119365154Y-94822927D01*
X119115794Y-95423453D01*
X119115226Y-96073694D01*
X119363538Y-96674655D01*
X119728246Y-97040000D01*
X114051618Y-97040000D01*
X114102557Y-96902163D01*
X113130000Y-95929605D01*
X112157443Y-96902163D01*
X112208382Y-97040000D01*
X101069930Y-97040000D01*
X100894345Y-97005074D01*
X100804774Y-96945225D01*
X100744926Y-96855655D01*
X100710000Y-96680070D01*
X100710000Y-95500272D01*
X100766887Y-95585409D01*
X101264877Y-95918155D01*
X101852296Y-96035000D01*
X103747704Y-96035000D01*
X104335123Y-95918155D01*
X104833113Y-95585409D01*
X104899815Y-95485582D01*
X111484599Y-95485582D01*
X111508659Y-96135377D01*
X111711035Y-96623958D01*
X111977837Y-96722557D01*
X112950395Y-95750000D01*
X113309605Y-95750000D01*
X114282163Y-96722557D01*
X114548965Y-96623958D01*
X114775401Y-96014418D01*
X114751341Y-95364623D01*
X114548965Y-94876042D01*
X114282163Y-94777443D01*
X113309605Y-95750000D01*
X112950395Y-95750000D01*
X111977837Y-94777443D01*
X111711035Y-94876042D01*
X111484599Y-95485582D01*
X104899815Y-95485582D01*
X105165859Y-95087419D01*
X105263242Y-94597837D01*
X112157443Y-94597837D01*
X113130000Y-95570395D01*
X114102557Y-94597837D01*
X114003958Y-94331035D01*
X113394418Y-94104599D01*
X112744623Y-94128659D01*
X112256042Y-94331035D01*
X112157443Y-94597837D01*
X105263242Y-94597837D01*
X105282704Y-94500000D01*
X105165859Y-93912581D01*
X105111990Y-93831960D01*
X105668371Y-93602068D01*
X106100551Y-93170643D01*
X106334733Y-92606670D01*
X106334979Y-92323694D01*
X108955226Y-92323694D01*
X109203538Y-92924655D01*
X109662927Y-93384846D01*
X110263453Y-93634206D01*
X110913694Y-93634774D01*
X111514655Y-93386462D01*
X111974846Y-92927073D01*
X112224206Y-92326547D01*
X112224208Y-92323694D01*
X119115226Y-92323694D01*
X119363538Y-92924655D01*
X119822927Y-93384846D01*
X120423453Y-93634206D01*
X121073694Y-93634774D01*
X121674655Y-93386462D01*
X122134846Y-92927073D01*
X122384206Y-92326547D01*
X122384774Y-91676306D01*
X122136462Y-91075345D01*
X121677073Y-90615154D01*
X121076547Y-90365794D01*
X120426306Y-90365226D01*
X119825345Y-90613538D01*
X119365154Y-91072927D01*
X119115794Y-91673453D01*
X119115226Y-92323694D01*
X112224208Y-92323694D01*
X112224774Y-91676306D01*
X111976462Y-91075345D01*
X111517073Y-90615154D01*
X110916547Y-90365794D01*
X110266306Y-90365226D01*
X109665345Y-90613538D01*
X109205154Y-91072927D01*
X108955794Y-91673453D01*
X108955226Y-92323694D01*
X106334979Y-92323694D01*
X106335265Y-91996009D01*
X106299853Y-91910305D01*
X108055079Y-90155079D01*
X108225245Y-89900406D01*
X108285001Y-89600000D01*
X108285000Y-89599995D01*
X108285000Y-85679910D01*
X108445920Y-85518990D01*
X108613538Y-85924655D01*
X109072927Y-86384846D01*
X109651965Y-86625283D01*
X109075345Y-86863538D01*
X108615154Y-87322927D01*
X108365794Y-87923453D01*
X108365226Y-88573694D01*
X108613538Y-89174655D01*
X109072927Y-89634846D01*
X109673453Y-89884206D01*
X110323694Y-89884774D01*
X110924655Y-89636462D01*
X111384846Y-89177073D01*
X111634206Y-88576547D01*
X111634774Y-87926306D01*
X111386462Y-87325345D01*
X110927073Y-86865154D01*
X110348035Y-86624717D01*
X110924655Y-86386462D01*
X111384846Y-85927073D01*
X111634206Y-85326547D01*
X111634774Y-84676306D01*
X111386462Y-84075345D01*
X110927073Y-83615154D01*
X110519143Y-83445767D01*
X111655797Y-82309113D01*
X111703538Y-82424655D01*
X112162927Y-82884846D01*
X112763453Y-83134206D01*
X113413694Y-83134774D01*
X114014655Y-82886462D01*
X114474846Y-82427073D01*
X114724206Y-81826547D01*
X114724774Y-81176306D01*
X114476462Y-80575345D01*
X114111754Y-80210000D01*
X122228715Y-80210000D01*
X121865154Y-80572927D01*
G36*
X111705154Y-80572927D02*
X111646160Y-80715000D01*
X111354757Y-80715000D01*
X111354752Y-80714999D01*
X111054346Y-80774755D01*
X110799673Y-80944921D01*
X106944921Y-84799673D01*
X106774755Y-85054345D01*
X106774755Y-85054346D01*
X106715000Y-85354752D01*
X106715000Y-89274842D01*
X106184996Y-89804846D01*
X106185240Y-89525715D01*
X105974831Y-89016485D01*
X105758687Y-88799964D01*
X105973461Y-88585564D01*
X106184759Y-88076702D01*
X106185240Y-87525715D01*
X105974831Y-87016485D01*
X105601062Y-86642064D01*
X105614148Y-86636643D01*
X105700554Y-86380159D01*
X104800000Y-85479605D01*
X104785858Y-85493748D01*
X104606253Y-85314143D01*
X104620395Y-85300000D01*
X104979605Y-85300000D01*
X105880159Y-86200554D01*
X106136643Y-86114148D01*
X106346458Y-85540664D01*
X106320839Y-84930540D01*
X106136643Y-84485852D01*
X105880159Y-84399446D01*
X104979605Y-85300000D01*
X104620395Y-85300000D01*
X104606253Y-85285858D01*
X104785858Y-85106253D01*
X104800000Y-85120395D01*
X105700554Y-84219841D01*
X105614148Y-83963357D01*
X105105763Y-83777359D01*
X105165859Y-83687419D01*
X105282704Y-83100000D01*
X105165859Y-82512581D01*
X104833113Y-82014591D01*
X104335123Y-81681845D01*
X103747704Y-81565000D01*
X101852296Y-81565000D01*
X101264877Y-81681845D01*
X100766887Y-82014591D01*
X100710000Y-82099728D01*
X100710000Y-80569930D01*
X100744926Y-80394345D01*
X100804774Y-80304775D01*
X100894345Y-80244926D01*
X101069930Y-80210000D01*
X112068715Y-80210000D01*
X111705154Y-80572927D01*
X111705154Y-80572927D01*
G37*
X111705154Y-80572927D02*
X111646160Y-80715000D01*
X111354757Y-80715000D01*
X111354752Y-80714999D01*
X111054346Y-80774755D01*
X110799673Y-80944921D01*
X106944921Y-84799673D01*
X106774755Y-85054345D01*
X106774755Y-85054346D01*
X106715000Y-85354752D01*
X106715000Y-89274842D01*
X106184996Y-89804846D01*
X106185240Y-89525715D01*
X105974831Y-89016485D01*
X105758687Y-88799964D01*
X105973461Y-88585564D01*
X106184759Y-88076702D01*
X106185240Y-87525715D01*
X105974831Y-87016485D01*
X105601062Y-86642064D01*
X105614148Y-86636643D01*
X105700554Y-86380159D01*
X104800000Y-85479605D01*
X104785858Y-85493748D01*
X104606253Y-85314143D01*
X104620395Y-85300000D01*
X104979605Y-85300000D01*
X105880159Y-86200554D01*
X106136643Y-86114148D01*
X106346458Y-85540664D01*
X106320839Y-84930540D01*
X106136643Y-84485852D01*
X105880159Y-84399446D01*
X104979605Y-85300000D01*
X104620395Y-85300000D01*
X104606253Y-85285858D01*
X104785858Y-85106253D01*
X104800000Y-85120395D01*
X105700554Y-84219841D01*
X105614148Y-83963357D01*
X105105763Y-83777359D01*
X105165859Y-83687419D01*
X105282704Y-83100000D01*
X105165859Y-82512581D01*
X104833113Y-82014591D01*
X104335123Y-81681845D01*
X103747704Y-81565000D01*
X101852296Y-81565000D01*
X101264877Y-81681845D01*
X100766887Y-82014591D01*
X100710000Y-82099728D01*
X100710000Y-80569930D01*
X100744926Y-80394345D01*
X100804774Y-80304775D01*
X100894345Y-80244926D01*
X101069930Y-80210000D01*
X112068715Y-80210000D01*
X111705154Y-80572927D01*
M02*
